<svg width="32" height="32" viewBox="0 0 32 32" fill="none" xmlns="http://www.w3.org/2000/svg">
<path d="M11 12.7503H5C4.80109 12.7503 4.61032 12.6713 4.46967 12.5307C4.32902 12.39 4.25 12.1992 4.25 12.0003V6.00033C4.25 5.80141 4.32902 5.61065 4.46967 5.47C4.61032 5.32934 4.80109 5.25033 5 5.25033C5.19891 5.25033 5.38968 5.32934 5.53033 5.47C5.67098 5.61065 5.75 5.80141 5.75 6.00033V10.1903L8 7.94033C10.185 5.74479 13.1525 4.50697 16.25 4.49908H16.315C19.3837 4.48979 22.3327 5.68923 24.5238 7.83783C24.6584 7.97835 24.7331 8.16569 24.7322 8.36028C24.7312 8.55487 24.6547 8.74148 24.5187 8.88069C24.3827 9.0199 24.198 9.10082 24.0035 9.10635C23.809 9.11188 23.6199 9.04159 23.4762 8.91033C21.5458 7.02609 18.9503 5.97883 16.2528 5.99568C13.5552 6.01253 10.973 7.09212 9.06625 9.00033L6.81 11.2503H11C11.1989 11.2503 11.3897 11.3293 11.5303 11.47C11.671 11.6106 11.75 11.8014 11.75 12.0003C11.75 12.1992 11.671 12.39 11.5303 12.5307C11.3897 12.6713 11.1989 12.7503 11 12.7503ZM27 19.2503H21C20.8011 19.2503 20.6103 19.3293 20.4697 19.47C20.329 19.6106 20.25 19.8014 20.25 20.0003C20.25 20.1992 20.329 20.39 20.4697 20.5307C20.6103 20.6713 20.8011 20.7503 21 20.7503H25.19L22.9338 23.0003C21.0288 24.9136 18.4424 25.9926 15.7425 26.0003H15.685C13.0073 26.0068 10.4346 24.9587 8.52375 23.0828C8.38009 22.9516 8.19104 22.8813 7.99653 22.8868C7.80201 22.8923 7.61726 22.9732 7.48129 23.1125C7.34533 23.2517 7.26879 23.4383 7.26785 23.6329C7.26691 23.8275 7.34164 24.0148 7.47625 24.1553C9.66629 26.3062 12.6154 27.5079 15.685 27.5003H15.75C18.8475 27.4924 21.815 26.2546 24 24.0591L26.25 21.8028V26.0003C26.25 26.1992 26.329 26.39 26.4697 26.5307C26.6103 26.6713 26.8011 26.7503 27 26.7503C27.1989 26.7503 27.3897 26.6713 27.5303 26.5307C27.671 26.39 27.75 26.1992 27.75 26.0003V20.0003C27.75 19.8014 27.671 19.6106 27.5303 19.47C27.3897 19.3293 27.1989 19.2503 27 19.2503Z" fill="#343330"/>
</svg>
