<svg width="30" height="24" viewBox="0 0 30 24" fill="none" xmlns="http://www.w3.org/2000/svg">
<path d="M5.30482 0.200299C5.16752 0.0728578 4.98749 0.00141244 4.80016 2.07199e-05C4.61284 -0.001371 4.43177 0.0673916 4.29259 0.192779C4.15341 0.318167 4.06619 0.491101 4.0481 0.677557C4.03 0.864013 4.08234 1.05049 4.19482 1.2003L6.80482 4.0753C2.14482 6.8128 0.151068 11.2003 0.0648175 11.3965C0.022083 11.4926 0 11.5965 0 11.7015C0 11.8066 0.022083 11.9105 0.0648175 12.0065C0.107318 12.1028 1.14732 14.409 3.46982 16.7316C5.62482 18.8841 9.32732 21.4503 14.7498 21.4503C17.0163 21.4641 19.2587 20.9842 21.3211 20.0441L24.1961 23.2053C24.33 23.3525 24.5169 23.4405 24.7157 23.4498C24.9145 23.4592 25.1089 23.3892 25.2561 23.2553C25.4033 23.1214 25.4912 22.9344 25.5006 22.7357C25.51 22.5369 25.44 22.3425 25.3061 22.1953L5.30482 0.200299ZM11.3823 9.1153L17.0073 15.3053C16.1628 15.833 15.1598 16.0474 14.1733 15.9111C13.1869 15.7747 12.2796 15.2963 11.6099 14.5593C10.9401 13.8223 10.5505 12.8735 10.5089 11.8786C10.4673 10.8836 10.7764 9.90561 11.3823 9.1153ZM14.7498 19.9503C10.8273 19.9503 7.40232 18.5228 4.56857 15.7091C3.38038 14.5287 2.37513 13.1776 1.58607 11.7003C2.12232 10.6753 4.09857 7.3028 7.83607 5.21155L10.3611 7.9878C9.46208 9.05307 8.98067 10.4086 9.0064 11.8023C9.03212 13.196 9.56323 14.5328 10.5009 15.5642C11.4386 16.5956 12.719 17.2512 14.1039 17.4092C15.4889 17.5671 16.884 17.2166 18.0298 16.4228L20.2561 18.8728C18.5107 19.595 16.6387 19.9614 14.7498 19.9503ZM15.5498 7.5253C15.3544 7.488 15.1818 7.3746 15.07 7.21004C14.9581 7.04547 14.9163 6.84323 14.9536 6.6478C14.9909 6.45237 15.1043 6.27976 15.2688 6.16794C15.4334 6.05612 15.6356 6.01425 15.8311 6.05155C17.0523 6.28881 18.1643 6.91436 19.0011 7.83498C19.8379 8.7556 20.3548 9.92199 20.4748 11.1603C20.4839 11.2584 20.4736 11.3573 20.4445 11.4514C20.4154 11.5455 20.3681 11.633 20.3051 11.7088C20.2422 11.7846 20.165 11.8472 20.0779 11.8932C19.9907 11.9391 19.8954 11.9675 19.7973 11.9766H19.7273C19.5398 11.9773 19.3587 11.9078 19.2199 11.7817C19.0811 11.6556 18.9945 11.4821 18.9773 11.2953C18.8882 10.3816 18.5064 9.52109 17.8889 8.84181C17.2713 8.16254 16.4509 7.7008 15.5498 7.5253ZM29.4348 12.0065C29.3836 12.1215 28.1386 14.8816 25.3273 17.3966C25.2544 17.4649 25.1685 17.518 25.0748 17.5527C24.9811 17.5874 24.8814 17.603 24.7815 17.5986C24.6817 17.5942 24.5837 17.5699 24.4934 17.5271C24.4031 17.4843 24.3222 17.4239 24.2555 17.3495C24.1889 17.275 24.1378 17.1879 24.1053 17.0934C24.0727 16.9989 24.0594 16.8989 24.0661 16.7991C24.0728 16.6994 24.0994 16.602 24.1442 16.5127C24.1891 16.4234 24.2513 16.344 24.3273 16.2791C25.7805 14.9735 26.9941 13.4239 27.9136 11.7003C27.1243 10.2231 26.1191 8.87199 24.9311 7.69155C22.0973 4.8778 18.6723 3.4503 14.7498 3.4503C13.9253 3.44932 13.1021 3.51621 12.2886 3.6503C12.1906 3.66876 12.09 3.66752 11.9925 3.64663C11.895 3.62575 11.8027 3.58564 11.7209 3.52866C11.6391 3.47168 11.5695 3.39896 11.5162 3.31477C11.4628 3.23058 11.4267 3.13659 11.4101 3.0383C11.3935 2.94002 11.3967 2.8394 11.4194 2.74235C11.4421 2.64529 11.4839 2.55374 11.5424 2.47304C11.601 2.39233 11.675 2.32411 11.7602 2.27234C11.8453 2.22058 11.94 2.18631 12.0386 2.17155C12.9346 2.0228 13.8415 1.94879 14.7498 1.9503C20.1723 1.9503 23.8748 4.5178 26.0298 6.6703C28.3523 8.9928 29.3923 11.2953 29.4348 11.3965C29.4776 11.4926 29.4996 11.5965 29.4996 11.7015C29.4996 11.8066 29.4776 11.9105 29.4348 12.0065Z" fill="#343330"/>
</svg>
