<svg width="32" height="32" viewBox="0 0 32 32" fill="none" xmlns="http://www.w3.org/2000/svg">
<path d="M10.75 28.0002C10.75 28.3463 10.6473 28.6846 10.455 28.9724C10.2627 29.2602 9.98944 29.4845 9.66967 29.6169C9.3499 29.7494 8.99803 29.784 8.65856 29.7165C8.3191 29.649 8.00728 29.4823 7.76253 29.2376C7.51779 28.9928 7.35112 28.681 7.2836 28.3416C7.21607 28.0021 7.25073 27.6502 7.38318 27.3305C7.51563 27.0107 7.73994 26.7374 8.02772 26.5451C8.31551 26.3528 8.65385 26.2502 8.99997 26.2502C9.4641 26.2502 9.90922 26.4345 10.2374 26.7627C10.5656 27.0909 10.75 27.536 10.75 28.0002ZM27 26.2502C26.6539 26.2502 26.3155 26.3528 26.0277 26.5451C25.7399 26.7374 25.5156 27.0107 25.3832 27.3305C25.2507 27.6502 25.2161 28.0021 25.2836 28.3416C25.3511 28.681 25.5178 28.9928 25.7625 29.2376C26.0073 29.4823 26.3191 29.649 26.6586 29.7165C26.998 29.784 27.3499 29.7494 27.6697 29.6169C27.9894 29.4845 28.2628 29.2602 28.455 28.9724C28.6473 28.6846 28.75 28.3463 28.75 28.0002C28.75 27.536 28.5656 27.0909 28.2374 26.7627C27.9092 26.4345 27.4641 26.2502 27 26.2502ZM30 22.2502H6.74997V9.4139C6.7504 9.18402 6.70533 8.95633 6.61737 8.74394C6.52942 8.53156 6.4003 8.33867 6.23747 8.1764L3.52997 5.47015C3.46131 5.39647 3.37851 5.33736 3.28651 5.29637C3.19451 5.25538 3.0952 5.23334 2.99449 5.23156C2.89379 5.22979 2.79376 5.24831 2.70037 5.28603C2.60698 5.32375 2.52215 5.3799 2.45093 5.45112C2.37971 5.52233 2.32357 5.60717 2.28585 5.70056C2.24813 5.79394 2.2296 5.89397 2.23138 5.99468C2.23316 6.09538 2.2552 6.19469 2.29619 6.28669C2.33718 6.37869 2.39628 6.46149 2.46997 6.53015L5.17622 9.23765C5.22317 9.28432 5.24969 9.34771 5.24997 9.4139V22.2502H3.99997C3.80106 22.2502 3.61029 22.3292 3.46964 22.4698C3.32899 22.6105 3.24997 22.8012 3.24997 23.0002C3.24997 23.1991 3.32899 23.3898 3.46964 23.5305C3.61029 23.6711 3.80106 23.7502 3.99997 23.7502H30C30.1989 23.7502 30.3897 23.6711 30.5303 23.5305C30.671 23.3898 30.75 23.1991 30.75 23.0002C30.75 22.8012 30.671 22.6105 30.5303 22.4698C30.3897 22.3292 30.1989 22.2502 30 22.2502Z" fill="#343330"/>
</svg>
