<svg width="20" height="20" viewBox="0 0 20 20" fill="none" xmlns="http://www.w3.org/2000/svg">
<path d="M13.1634 15.5868C13.3396 15.763 13.4385 16.0018 13.4385 16.2509C13.4385 16.5 13.3396 16.7388 13.1634 16.915C12.9873 17.0911 12.7484 17.19 12.4994 17.19C12.2503 17.19 12.0114 17.0911 11.8353 16.915L5.58531 10.665C5.49791 10.5779 5.42856 10.4744 5.38124 10.3604C5.33393 10.2465 5.30957 10.1243 5.30957 10.0009C5.30957 9.87751 5.33393 9.75533 5.38124 9.64138C5.42856 9.52742 5.49791 9.42393 5.58531 9.33683L11.8353 3.08683C12.0114 2.91071 12.2503 2.81177 12.4994 2.81177C12.7484 2.81177 12.9873 2.91071 13.1634 3.08683C13.3396 3.26295 13.4385 3.50182 13.4385 3.75089C13.4385 3.99997 13.3396 4.23884 13.1634 4.41496L7.57828 10.0001L13.1634 15.5868Z" fill="#1D1D21"/>
</svg>
