<svg width="20" height="20" viewBox="0 0 20 20" fill="none" xmlns="http://www.w3.org/2000/svg">
<path d="M18.2195 4.39922C18.1316 4.29384 18.0215 4.20906 17.8972 4.15088C17.7729 4.09269 17.6373 4.06252 17.5 4.0625H5.15625L4.72891 1.70703C4.68959 1.49115 4.5758 1.29591 4.40735 1.15529C4.2389 1.01468 4.02646 0.937607 3.80703 0.9375H1.875C1.62636 0.9375 1.3879 1.03627 1.21209 1.21209C1.03627 1.3879 0.9375 1.62636 0.9375 1.875C0.9375 2.12364 1.03627 2.3621 1.21209 2.53791C1.3879 2.71373 1.62636 2.8125 1.875 2.8125H3.02422L4.97031 13.5156C5.02256 13.7999 5.13063 14.071 5.28828 14.3133C5.00918 14.6399 4.81894 15.0328 4.73591 15.4543C4.65287 15.8758 4.67986 16.3116 4.81425 16.7196C4.94864 17.1277 5.18591 17.4942 5.50317 17.7838C5.82043 18.0735 6.20698 18.2765 6.62552 18.3732C7.04407 18.47 7.48049 18.4573 7.8927 18.3364C8.30491 18.2154 8.679 17.9903 8.97888 17.6827C9.27875 17.3751 9.49431 16.9954 9.60474 16.5802C9.71518 16.1651 9.71678 15.7284 9.60937 15.3125H12.2656C12.1353 15.8173 12.166 16.3502 12.3535 16.8366C12.541 17.3231 12.8759 17.7387 13.3113 18.0255C13.7467 18.3122 14.2609 18.4556 14.7818 18.4357C15.3028 18.4157 15.8044 18.2335 16.2167 17.9143C16.6289 17.5952 16.931 17.1551 17.0808 16.6558C17.2306 16.1564 17.2205 15.6227 17.052 15.1294C16.8835 14.6361 16.565 14.2077 16.141 13.9044C15.717 13.601 15.2088 13.4378 14.6875 13.4375H7.12266C7.0496 13.4374 6.97887 13.4117 6.92278 13.3649C6.86669 13.3181 6.82877 13.2531 6.81562 13.1812L6.63437 12.1875H15.3203C15.8327 12.1875 16.3289 12.0076 16.7222 11.6792C17.1156 11.3508 17.3812 10.8948 17.4727 10.3906L18.4227 5.16719C18.4471 5.03211 18.4416 4.89333 18.4065 4.76063C18.3714 4.62793 18.3075 4.50455 18.2195 4.39922ZM7.8125 15.9375C7.8125 16.0611 7.77584 16.182 7.70717 16.2847C7.63849 16.3875 7.54088 16.4676 7.42668 16.5149C7.31247 16.5622 7.18681 16.5746 7.06557 16.5505C6.94433 16.5264 6.83297 16.4669 6.74556 16.3794C6.65815 16.292 6.59862 16.1807 6.57451 16.0594C6.55039 15.9382 6.56277 15.8125 6.61007 15.6983C6.65738 15.5841 6.73749 15.4865 6.84027 15.4178C6.94305 15.3492 7.06389 15.3125 7.1875 15.3125C7.35326 15.3125 7.51223 15.3783 7.62944 15.4956C7.74665 15.6128 7.8125 15.7717 7.8125 15.9375ZM14.6875 16.5625C14.5639 16.5625 14.443 16.5258 14.3403 16.4572C14.2375 16.3885 14.1574 16.2909 14.1101 16.1767C14.0628 16.0625 14.0504 15.9368 14.0745 15.8156C14.0986 15.6943 14.1581 15.583 14.2456 15.4956C14.333 15.4081 14.4443 15.3486 14.5656 15.3245C14.6868 15.3004 14.8125 15.3128 14.9267 15.3601C15.0409 15.4074 15.1385 15.4875 15.2072 15.5903C15.2758 15.693 15.3125 15.8139 15.3125 15.9375C15.3125 16.1033 15.2467 16.2622 15.1294 16.3794C15.0122 16.4967 14.8533 16.5625 14.6875 16.5625ZM15.625 10.0562C15.6119 10.1277 15.5743 10.1924 15.5187 10.2392C15.4631 10.2859 15.393 10.3119 15.3203 10.3125H6.29375L5.49844 5.9375H16.3766L15.625 10.0562Z" fill="#1D1D21"/>
</svg>
