<svg width="16" height="16" viewBox="0 0 16 16" fill="none" xmlns="http://www.w3.org/2000/svg">
<path d="M8 1.5C6.71442 1.5 5.45772 1.88122 4.3888 2.59545C3.31988 3.30968 2.48676 4.32484 1.99479 5.51256C1.50282 6.70028 1.37409 8.00721 1.6249 9.26809C1.8757 10.529 2.49477 11.6872 3.40381 12.5962C4.31285 13.5052 5.47104 14.1243 6.73192 14.3751C7.99279 14.6259 9.29973 14.4972 10.4874 14.0052C11.6752 13.5132 12.6903 12.6801 13.4046 11.6112C14.1188 10.5423 14.5 9.28558 14.5 8C14.4982 6.27665 13.8128 4.62441 12.5942 3.40582C11.3756 2.18722 9.72335 1.50182 8 1.5ZM8.5 13.4769V11.5C8.5 11.3674 8.44732 11.2402 8.35356 11.1464C8.25979 11.0527 8.13261 11 8 11C7.86739 11 7.74022 11.0527 7.64645 11.1464C7.55268 11.2402 7.5 11.3674 7.5 11.5V13.4769C6.22007 13.3584 5.02188 12.796 4.11296 11.887C3.20404 10.9781 2.64163 9.77993 2.52313 8.5H4.5C4.63261 8.5 4.75979 8.44732 4.85356 8.35355C4.94732 8.25979 5 8.13261 5 8C5 7.86739 4.94732 7.74021 4.85356 7.64645C4.75979 7.55268 4.63261 7.5 4.5 7.5H2.52313C2.64163 6.22007 3.20404 5.02188 4.11296 4.11296C5.02188 3.20404 6.22007 2.64163 7.5 2.52312V4.5C7.5 4.63261 7.55268 4.75979 7.64645 4.85355C7.74022 4.94732 7.86739 5 8 5C8.13261 5 8.25979 4.94732 8.35356 4.85355C8.44732 4.75979 8.5 4.63261 8.5 4.5V2.52312C9.77994 2.64163 10.9781 3.20404 11.887 4.11296C12.796 5.02188 13.3584 6.22007 13.4769 7.5H11.5C11.3674 7.5 11.2402 7.55268 11.1464 7.64645C11.0527 7.74021 11 7.86739 11 8C11 8.13261 11.0527 8.25979 11.1464 8.35355C11.2402 8.44732 11.3674 8.5 11.5 8.5H13.4769C13.3584 9.77993 12.796 10.9781 11.887 11.887C10.9781 12.796 9.77994 13.3584 8.5 13.4769Z" fill="#343330"/>
</svg>
