<svg width="14" height="14" viewBox="0 0 14 14" fill="none" xmlns="http://www.w3.org/2000/svg">
<path d="M11.2473 10.628C11.2879 10.6686 11.3202 10.7169 11.3422 10.77C11.3642 10.8231 11.3755 10.88 11.3755 10.9375C11.3755 10.995 11.3642 11.0519 11.3422 11.105C11.3202 11.1581 11.2879 11.2064 11.2473 11.247C11.2066 11.2877 11.1584 11.3199 11.1053 11.3419C11.0522 11.3639 10.9952 11.3752 10.9377 11.3752C10.8803 11.3752 10.8233 11.3639 10.7702 11.3419C10.7171 11.3199 10.6689 11.2877 10.6282 11.247L7.00024 7.61851L3.37227 11.247C3.29018 11.3291 3.17884 11.3752 3.06274 11.3752C2.94665 11.3752 2.8353 11.3291 2.75321 11.247C2.67112 11.1649 2.625 11.0536 2.625 10.9375C2.625 10.8214 2.67112 10.7101 2.75321 10.628L6.38173 7L2.75321 3.37203C2.67112 3.28994 2.625 3.1786 2.625 3.0625C2.625 2.9464 2.67112 2.83506 2.75321 2.75297C2.8353 2.67088 2.94665 2.62476 3.06274 2.62476C3.17884 2.62476 3.29018 2.67088 3.37227 2.75297L7.00024 6.38148L10.6282 2.75297C10.7103 2.67088 10.8216 2.62476 10.9377 2.62476C11.0538 2.62476 11.1652 2.67088 11.2473 2.75297C11.3294 2.83506 11.3755 2.9464 11.3755 3.0625C11.3755 3.1786 11.3294 3.28994 11.2473 3.37203L7.61876 7L11.2473 10.628Z" fill="#383940" fill-opacity="0.6"/>
</svg>
