<svg width="20" height="20" viewBox="0 0 20 20" fill="none" xmlns="http://www.w3.org/2000/svg">
<path d="M17.9805 5.51109L14.4891 2.02047C14.1961 1.72754 13.7987 1.56299 13.3844 1.56299C12.9701 1.56299 12.5727 1.72754 12.2797 2.02047L2.64532 11.6541C2.49973 11.7988 2.3843 11.9709 2.30571 12.1605C2.22713 12.3502 2.18695 12.5535 2.18751 12.7587V16.2502C2.18751 16.6646 2.35213 17.062 2.64515 17.355C2.93818 17.648 3.3356 17.8127 3.75001 17.8127H16.875C17.1236 17.8127 17.3621 17.7139 17.5379 17.5381C17.7137 17.3623 17.8125 17.1238 17.8125 16.8752C17.8125 16.6265 17.7137 16.3881 17.5379 16.2122C17.3621 16.0364 17.1236 15.9377 16.875 15.9377H9.76563L17.9805 7.72125C18.1256 7.57615 18.2408 7.40387 18.3193 7.21426C18.3979 7.02465 18.4383 6.82141 18.4383 6.61617C18.4383 6.41093 18.3979 6.20769 18.3193 6.01808C18.2408 5.82847 18.1256 5.65619 17.9805 5.51109ZM7.10938 15.9377H4.06251V12.8908L10.625 6.32828L13.6719 9.37515L7.10938 15.9377ZM15 8.04703L11.9531 5.00015L13.3859 3.56734L16.4328 6.61422L15 8.04703Z" fill="#343330"/>
</svg>
