<svg width="19" height="19" viewBox="0 0 19 19" fill="none" xmlns="http://www.w3.org/2000/svg">
<path d="M16.3335 9.33325C16.3335 9.48796 16.272 9.63634 16.1626 9.74573C16.0532 9.85513 15.9049 9.91659 15.7502 9.91659H9.91683V15.7499C9.91683 15.9046 9.85537 16.053 9.74598 16.1624C9.63658 16.2718 9.48821 16.3333 9.3335 16.3333C9.17879 16.3333 9.03041 16.2718 8.92102 16.1624C8.81162 16.053 8.75016 15.9046 8.75016 15.7499V9.91659H2.91683C2.76212 9.91659 2.61375 9.85513 2.50435 9.74573C2.39495 9.63634 2.3335 9.48796 2.3335 9.33325C2.3335 9.17854 2.39495 9.03017 2.50435 8.92077C2.61375 8.81138 2.76212 8.74992 2.91683 8.74992H8.75016V2.91659C8.75016 2.76188 8.81162 2.6135 8.92102 2.50411C9.03041 2.39471 9.17879 2.33325 9.3335 2.33325C9.48821 2.33325 9.63658 2.39471 9.74598 2.50411C9.85537 2.6135 9.91683 2.76188 9.91683 2.91659V8.74992H15.7502C15.9049 8.74992 16.0532 8.81138 16.1626 8.92077C16.272 9.03017 16.3335 9.17854 16.3335 9.33325Z" fill="#343330"/>
</svg>
