<svg width="26" height="24" viewBox="0 0 26 24" fill="none" xmlns="http://www.w3.org/2000/svg">
<path d="M25.5 11.7543C25.5003 14.8435 24.284 17.8085 22.1144 20.0076C19.9448 22.2067 16.9964 23.4629 13.9075 23.5043H13.75C10.7505 23.5105 7.86354 22.3625 5.6875 20.298C5.61352 20.231 5.55366 20.1499 5.51143 20.0594C5.4692 19.969 5.44545 19.871 5.44157 19.7713C5.4377 19.6715 5.45377 19.572 5.48886 19.4786C5.52394 19.3851 5.57733 19.2996 5.64589 19.227C5.71445 19.1545 5.7968 19.0963 5.88812 19.056C5.97944 19.0157 6.07789 18.994 6.17769 18.9923C6.2775 18.9905 6.37666 19.0087 6.46935 19.0457C6.56204 19.0828 6.64641 19.1379 6.7175 19.208C8.1832 20.5901 10.0237 21.5096 12.009 21.8517C13.9942 22.1937 16.0363 21.9432 17.88 21.1314C19.7238 20.3196 21.2874 18.9824 22.3755 17.287C23.4637 15.5917 24.0281 13.6132 23.9983 11.5989C23.9685 9.58459 23.3458 7.62371 22.208 5.96126C21.0702 4.29881 19.4677 3.00852 17.6008 2.25158C15.7338 1.49463 13.6852 1.30462 11.7109 1.70526C9.73665 2.10591 7.92418 3.07946 6.5 4.50426L6.47625 4.52802L2.68 8.00426H6.75C6.94891 8.00426 7.13968 8.08328 7.28033 8.22394C7.42098 8.36459 7.5 8.55535 7.5 8.75426C7.5 8.95318 7.42098 9.14394 7.28033 9.28459C7.13968 9.42525 6.94891 9.50426 6.75 9.50426H0.75C0.551088 9.50426 0.360322 9.42525 0.21967 9.28459C0.0790175 9.14394 0 8.95318 0 8.75426V2.75427C0 2.55535 0.0790175 2.36459 0.21967 2.22393C0.360322 2.08328 0.551088 2.00427 0.75 2.00427C0.948912 2.00427 1.13968 2.08328 1.28033 2.22393C1.42098 2.36459 1.5 2.55535 1.5 2.75427V7.04676L5.45375 3.42927C7.09865 1.78921 9.19275 0.673479 11.4715 0.223045C13.7502 -0.227389 16.1113 0.00767988 18.2565 0.898554C20.4017 1.78943 22.2347 3.29613 23.5239 5.22831C24.8132 7.16049 25.5008 9.43145 25.5 11.7543Z" fill="#343330"/>
</svg>
