<svg width="20" height="20" viewBox="0 0 20 20" fill="none" xmlns="http://www.w3.org/2000/svg">
<path d="M16.8753 9.375C16.7026 9.37539 16.5301 9.38977 16.3597 9.41797L15.905 8.23516C16.2233 8.16211 16.5488 8.12516 16.8753 8.125C17.0411 8.125 17.2001 8.05915 17.3173 7.94194C17.4345 7.82473 17.5003 7.66576 17.5003 7.5C17.5003 7.33424 17.4345 7.17527 17.3173 7.05806C17.2001 6.94085 17.0411 6.875 16.8753 6.875H15.3816L14.3339 4.15078C14.2886 4.0328 14.2085 3.93134 14.1044 3.85979C14.0002 3.78824 13.8767 3.74996 13.7503 3.75H11.2503C11.0846 3.75 10.9256 3.81585 10.8084 3.93306C10.6912 4.05027 10.6253 4.20924 10.6253 4.375C10.6253 4.54076 10.6912 4.69973 10.8084 4.81694C10.9256 4.93415 11.0846 5 11.2503 5H13.3214L14.0425 6.875H11.8753C10.43 6.875 9.25815 7.21172 8.48706 7.84844C8.3056 7.99482 8.08682 8.08753 7.85544 8.11611C7.62406 8.14469 7.3893 8.10799 7.17768 8.01016C6.35112 7.63437 2.43237 6.04141 2.08706 5.90625L1.64096 5.73125C1.51666 5.67691 1.38505 5.64111 1.25034 5.625C1.10463 5.62535 0.963618 5.6766 0.851688 5.7699C0.739757 5.86319 0.663941 5.99266 0.637345 6.13592C0.61075 6.27919 0.635047 6.42724 0.706035 6.55449C0.777024 6.68174 0.890243 6.78019 1.02612 6.83281C1.06206 6.84687 4.71284 8.2625 6.66128 9.14766C7.08627 9.341 7.55673 9.41206 8.01987 9.35286C8.483 9.29366 8.92046 9.10653 9.28315 8.8125C9.66284 8.5 10.4214 8.125 11.8761 8.125H13.3464C12.4341 8.85742 11.7738 9.857 11.4582 10.9836C11.3825 11.2423 11.2246 11.4693 11.0083 11.6302C10.7921 11.791 10.5292 11.877 10.2597 11.875H6.18784C6.03295 11.1162 5.60185 10.442 4.9781 9.983C4.35434 9.52402 3.58239 9.31299 2.81189 9.39082C2.04138 9.46866 1.32723 9.82982 0.807878 10.4043C0.288527 10.9787 0.000976562 11.7256 0.000976562 12.5C0.000976562 13.2744 0.288527 14.0213 0.807878 14.5957C1.32723 15.1702 2.04138 15.5313 2.81189 15.6092C3.58239 15.687 4.35434 15.476 4.9781 15.017C5.60185 14.558 6.03295 13.8838 6.18784 13.125H10.2597C10.8018 13.1262 11.3295 12.9507 11.7629 12.625C12.1962 12.2994 12.5116 11.8413 12.6613 11.3203C12.8172 10.7661 13.0809 10.2482 13.4374 9.79609C13.7939 9.34403 14.2361 8.96677 14.7386 8.68594L15.1933 9.86797C14.5598 10.2734 14.0939 10.8937 13.8809 11.6151C13.6679 12.3364 13.7222 13.1103 14.0338 13.7948C14.3455 14.4793 14.8935 15.0285 15.5774 15.3415C16.2613 15.6545 17.0351 15.7104 17.7569 15.4989C18.4786 15.2873 19.0999 14.8226 19.5066 14.1899C19.9133 13.5573 20.0782 12.7992 19.9711 12.0547C19.8639 11.3103 19.4919 10.6295 18.9232 10.1373C18.3546 9.64501 17.6274 9.37437 16.8753 9.375ZM3.12534 13.125H4.89253C4.74509 13.542 4.45498 13.8935 4.07348 14.1173C3.69197 14.3411 3.24363 14.4228 2.80769 14.348C2.37176 14.2732 1.9763 14.0467 1.69121 13.7085C1.40612 13.3704 1.24976 12.9423 1.24976 12.5C1.24976 12.0577 1.40612 11.6296 1.69121 11.2915C1.9763 10.9533 2.37176 10.7268 2.80769 10.652C3.24363 10.5772 3.69197 10.6589 4.07348 10.8827C4.45498 11.1065 4.74509 11.458 4.89253 11.875H3.12534C2.95958 11.875 2.80061 11.9408 2.6834 12.0581C2.56619 12.1753 2.50034 12.3342 2.50034 12.5C2.50034 12.6658 2.56619 12.8247 2.6834 12.9419C2.80061 13.0592 2.95958 13.125 3.12534 13.125ZM16.8753 14.375C16.4923 14.3745 16.1187 14.2568 15.8046 14.0376C15.4905 13.8184 15.2511 13.5083 15.1186 13.149C14.986 12.7897 14.9667 12.3984 15.0631 12.0277C15.1596 11.6571 15.3672 11.3249 15.6582 11.0758L16.2917 12.7242C16.3512 12.879 16.4697 13.0038 16.6212 13.0712C16.7727 13.1386 16.9448 13.1431 17.0996 13.0836C17.2543 13.0241 17.3792 12.9056 17.4465 12.7541C17.5139 12.6026 17.5184 12.4306 17.4589 12.2758L16.8246 10.625H16.8753C17.3726 10.625 17.8495 10.8225 18.2012 11.1742C18.5528 11.5258 18.7503 12.0027 18.7503 12.5C18.7503 12.9973 18.5528 13.4742 18.2012 13.8258C17.8495 14.1775 17.3726 14.375 16.8753 14.375Z" fill="#FF954E"/>
</svg>
