<svg width="32" height="32" viewBox="0 0 32 32" fill="none" xmlns="http://www.w3.org/2000/svg">
<path d="M26.5 17.25C26.2954 17.2504 26.0912 17.2654 25.8887 17.295L21.7112 4.7625C21.6614 4.61327 21.5659 4.48349 21.4383 4.39151C21.3106 4.29954 21.1573 4.25003 21 4.25H17C16.8011 4.25 16.6103 4.32902 16.4697 4.46967C16.329 4.61032 16.25 4.80109 16.25 5C16.25 5.19891 16.329 5.38968 16.4697 5.53033C16.6103 5.67098 16.8011 5.75 17 5.75H20.46L22.74 12.5913L15.645 21.25H9.74249C9.67962 20.1903 9.22248 19.1926 8.461 18.453C7.69952 17.7134 6.68884 17.2856 5.6278 17.2536C4.56675 17.2217 3.53217 17.588 2.72759 18.2804C1.92302 18.9729 1.4067 19.9414 1.28022 20.9953C1.15375 22.0493 1.42627 23.1124 2.04417 23.9756C2.66208 24.8387 3.58063 25.4394 4.6191 25.6594C5.65758 25.8794 6.74079 25.7028 7.65563 25.1644C8.57047 24.626 9.2507 23.7647 9.56249 22.75H16C16.111 22.7499 16.2206 22.7252 16.3209 22.6777C16.4212 22.6301 16.5097 22.5609 16.58 22.475L23.3 14.2725L24.4662 17.7725C23.558 18.27 22.8627 19.0819 22.5108 20.0558C22.1589 21.0298 22.1747 22.0986 22.5552 23.0617C22.9358 24.0248 23.6548 24.8158 24.5774 25.2862C25.4999 25.7566 26.5625 25.874 27.5654 25.6163C28.5684 25.3586 29.4428 24.7436 30.0243 23.8868C30.6059 23.03 30.8547 21.9903 30.7238 20.9631C30.593 19.9359 30.0916 18.9917 29.3139 18.308C28.5361 17.6243 27.5355 17.2481 26.5 17.25ZM5.49999 24.25C4.95609 24.25 4.42441 24.0887 3.97217 23.7865C3.51994 23.4844 3.16746 23.0549 2.95932 22.5524C2.75118 22.0499 2.69672 21.4969 2.80283 20.9635C2.90894 20.4301 3.17085 19.9401 3.55545 19.5555C3.94004 19.1709 4.43004 18.909 4.96349 18.8028C5.49694 18.6967 6.04987 18.7512 6.55237 18.9593C7.05487 19.1675 7.48436 19.5199 7.78653 19.9722C8.08871 20.4244 8.24999 20.9561 8.24999 21.5C8.24999 22.2293 7.96026 22.9288 7.44453 23.4445C6.92881 23.9603 6.22934 24.25 5.49999 24.25ZM26.5 24.25C25.9561 24.25 25.4244 24.0887 24.9722 23.7865C24.5199 23.4844 24.1675 23.0549 23.9593 22.5524C23.7512 22.0499 23.6967 21.4969 23.8028 20.9635C23.9089 20.4301 24.1709 19.9401 24.5554 19.5555C24.94 19.1709 25.43 18.909 25.9635 18.8028C26.4969 18.6967 27.0499 18.7512 27.5524 18.9593C28.0549 19.1675 28.4844 19.5199 28.7865 19.9722C29.0887 20.4244 29.25 20.9561 29.25 21.5C29.25 22.2293 28.9603 22.9288 28.4445 23.4445C27.9288 23.9603 27.2293 24.25 26.5 24.25Z" fill="#343330"/>
</svg>
